<?xml version="1.0"?>
<svg width="212.5" height="237.5" xmlns="http://www.w3.org/2000/svg">

 <g>
  <title>background</title>
  <rect fill="none" id="canvas_background" height="239.5" width="214.5" y="-1" x="-1"/>
 </g>
 <g>
  <title>Layer 1</title>
  <path d="m112.978989,19.717478c-49.770836,-4.6172 23.29599,4.263531 33.738998,9.685881c14.703003,7.59465 27.337997,19.213558 35.692993,33.420036c6.843002,11.41523 10.893997,24.43322 11.919006,37.660843c0.330002,8.44104 0.186996,16.893944 0.216995,25.34288c-0.003998,20.895462 0.003998,41.790894 -0.003998,62.687332c-0.274002,6.14415 0.147995,12.317947 -0.604004,18.436386c-0.269989,2.477829 -0.685989,5.040695 -1.966995,7.225845c-1.272003,2.133743 -3.938004,3.190735 -6.369995,2.790283c-1.38501,-0.386612 -2.531006,-1.309113 -3.590012,-2.23262c-5.410995,-5.100006 -9.283997,-11.646591 -15.184998,-16.262115c-2.279999,-1.709564 -5.349991,-3.220383 -8.220001,-2.061569c-4.072998,1.618607 -6.673996,5.324478 -9.395996,8.534973c-3.468994,4.165634 -6.768997,8.887955 -11.862991,11.223404c-3.183014,1.510818 -7.069,0.931412 -9.857002,-1.129166c-6.014,-4.404922 -9.130997,-11.544739 -14.962997,-16.143463c-2.966003,-2.356201 -7.056,-3.605011 -10.786003,-2.467941c-3.269997,0.849335 -5.761993,3.306396 -7.833,5.82576c-2.830994,3.537781 -4.993996,7.569946 -8.055,10.931717c-1.693993,1.859863 -3.903999,3.348938 -6.426003,3.795853c-2.94799,0.391541 -5.82299,-0.949219 -8.029007,-2.786331c-5.362999,-4.477097 -8.353996,-11.04245 -13.590988,-15.640182c-2.202,-1.99234 -1.949997,-2.031906 -8.376007,-2.12088c-5.263,1.892487 -9.037003,6.202484 -12.854,10.045792c-3.356003,3.301468 -6.148001,7.238693 -10.165001,9.823318c-2.045,1.382278 -4.806,0.605118 -6.639,-0.777161c-2.123001,-1.716492 -2.931002,-4.47316 -3.539001,-7.011292c-1.203,-5.869278 -1.116,-11.883896 -1.138,-17.843155c-0.134,-4.155746 -0.191,-8.315445 0.008,-12.471207c-0.013,-23.330765 -0.004,-46.660522 -0.004,-69.990288c-0.704,-24.15834 9.787002,-48.300873 27.664002,-64.726143c5.318996,-4.939339 14.811737,-10.541389 22.958107,-14.723341c8.14637,-4.18195 14.946358,-6.9438 14.879898,-6.202749c2.579582,-0.96464 1.661819,-0.43445 2.497002,-0.6341z" fill="#aa56ff" id="main"/>
  <path id="svg_1" d="m75.980003,77.348999c4.619995,-0.963997 9.495995,-0.542999 13.885994,1.194c6.739006,2.597 12.206001,8.406998 14.242004,15.358002c1.524002,4.810997 1.462997,10.122002 -0.143005,14.906998c-2.448997,7.919998 -9.378998,14.181 -17.459999,15.944c-2.253998,0.426003 -4.523994,1.063004 -6.834999,0.777c-3.338997,-0.456001 -6.695,-1.138 -9.722,-2.683998c-6.091995,-3.021004 -10.820999,-8.739998 -12.474998,-15.357002c-1.966999,-7.351997 -0.424999,-15.723 4.476997,-21.620003c3.509003,-4.349998 8.533005,-7.441994 14.030006,-8.518997z" fill="#FFFFFF"/>
  <path id="svg_2" d="m153.184006,76.345001c6.335007,-1.359001 13.182999,0.030998 18.567001,3.625999c4.229004,2.917999 7.628998,7.121002 9.270996,12.023003c2.558014,7.291 1.477005,15.792 -2.979004,22.131996c-3.416992,4.928001 -8.766998,8.467003 -14.638,9.691002c-1.718994,0.321999 -3.434998,0.768997 -5.188995,0.780998c-6.361008,-0.337997 -12.839996,-2.592003 -17.31601,-7.277c-4.702988,-4.472 -6.957001,-10.972 -7.207993,-17.354996c0.313004,-5.827003 2.257996,-11.707001 6.265991,-16.058006c3.451004,-3.854996 8.154007,-6.537994 13.226013,-7.562996z" fill="#FFFFFF"/>
  <path id="svg_3" d="m82.891998,90.492996c3.916992,-1.328995 8.528,-0.282997 11.450012,2.657005c3.38298,3.304001 4.27298,8.806 2.11499,13.014c-1.501999,2.987 -4.389999,5.296997 -7.694,5.931c-3.639008,0.850998 -7.685997,-0.386002 -10.274002,-3.079002c-2.088997,-2.097 -3.325996,-5.058998 -3.192001,-8.032997c-0.120995,-4.653999 3.210007,-9.056999 7.595001,-10.490005z" fill="#053F82"/>
  <path id="svg_4" d="m164.121994,89.492996c3.218002,-1.072998 6.925995,-0.607994 9.738998,1.298004c2.345001,1.514999 4.003998,3.994003 4.681,6.691002c0.972992,3.964996 -0.382004,8.397995 -3.503998,11.056c-4.095001,3.841995 -11.138,3.711998 -15.089005,-0.274002c-3.070007,-2.792 -4.151001,-7.351997 -3.039993,-11.293999c0.999008,-3.465004 3.774002,-6.374001 7.212997,-7.477005z" fill="#053F82"/>
  <ellipse id="svg_6" cy="156.75" cx="129.75" fill-opacity="null" stroke-opacity="null" stroke-width="null" stroke="null" fill="#78C9E9"/>
  <ellipse stroke="null" ry="29.999999" rx="35.499999" id="svg_7" cy="154.749999" cx="121.249999" stroke-opacity="null" stroke-width="null" fill="#00bf5f"/>
  <ellipse ry="11.5" rx="10" id="svg_8" cy="151.25" cx="134.75" stroke-opacity="null" stroke-width="null" stroke="null" fill="#bf0000"/>
 </g>
</svg>