<?xml version="1.0"?>
<svg width="700" height="500" xmlns="http://www.w3.org/2000/svg">
 <!-- Created with Method Draw - http://github.com/duopixel/Method-Draw/ -->

 <g>
  <title>&#20116;&#26143;&#32418;&#26071;</title>
  <rect fill="#db2929" id="canvas_background" height="502" width="702" y="-1" x="-1"/>
  <g display="none" id="canvasGrid">
   <rect fill="url(#gridpattern)" stroke-width="0" y="0" x="0" height="100%" width="100%" id="svg_1"/>
  </g>
 </g>
 <g>
  <title>Layer 1</title>
  <g id="svg_2">
   <path stroke="#000" id="svg_11" d="m81.802505,155.2854l33.613213,0l10.386787,-31.703156l10.386993,31.703156l33.613007,0l-27.193848,19.593063l10.387695,31.703781l-27.193848,-19.593704l-27.193848,19.593704l10.387695,-31.703781l-27.193848,-19.593063l0,0z" stroke-opacity="null" stroke-width="0" fill="#ffff00"/>
   <path transform="rotate(18 219.023 90.2722)" id="svg_12" d="m199.522507,85.668907l14.896362,0l4.603638,-14.89666l4.603043,14.89666l14.896957,0l-12.051819,9.20665l4.603638,14.89669l-12.051819,-9.206924l-12.051819,9.206924l4.603638,-14.89669l-12.051819,-9.20665l0,0z" stroke-opacity="null" stroke-width="0" stroke="#000" fill="#ffff00"/>
   <path transform="rotate(32 258.554 129.537)" id="svg_13" d="m239.054306,124.933319l14.896454,0l4.603745,-14.896721l4.602966,14.896721l14.897034,0l-12.051819,9.206635l4.603607,14.896652l-12.051788,-9.20697l-12.052032,9.20697l4.603729,-14.896652l-12.051895,-9.206635l0,0z" stroke-opacity="null" stroke-width="0" stroke="#000" fill="#ffff00"/>
   <path transform="rotate(58 263.923 189.976)" id="svg_14" d="m244.423401,185.373108l14.896423,0l4.603638,-14.896667l4.602966,14.896667l14.897034,0l-12.051819,9.20665l4.603638,14.896683l-12.051819,-9.206924l-12.051895,9.206924l4.603714,-14.896683l-12.05188,-9.20665l0,0z" stroke-opacity="null" stroke-width="0" stroke="#000" fill="#ffff00"/>
   <path transform="rotate(13 227.964 240)" id="svg_15" d="m208.464386,235.396912l14.896362,0l4.603638,-14.896667l4.603043,14.896667l14.896957,0l-12.051819,9.20665l4.603638,14.896683l-12.051819,-9.20694l-12.051819,9.20694l4.603638,-14.896683l-12.051819,-9.20665l0,0z" stroke-opacity="null" stroke-width="0" stroke="#000" fill="#ffff00"/>
  </g>
 </g>
</svg>